# Apple ModelIO OBJ File: ToothbrushOBJ
mtllib ToothbrushOBJ.mtl
g 
v -2.26772 -0.142431 0.35758
v 2.26772 -0.142431 0.35758
v 2.26772 0.142431 0.35758
v -2.26772 0.142431 0.35758
v 2.26772 0.142431 -0.35758
v -2.26772 0.142431 -0.35758
v 2.26772 -0.142431 -0.35758
v -2.26772 -0.142431 -0.35758
v -4.56857 0.142431 -0.35758
v -4.56857 -0.142431 -0.35758
v -4.56857 -0.142431 0.35758
v -4.56857 0.142431 0.35758
v -2.48763 -0.142431 -0.276284
v -2.48763 -0.142431 0.276284
v -2.48763 0.142431 0.276284
v -2.48763 0.142431 -0.276284
v -2.7116 -0.142431 -0.276284
v -2.7116 -0.142431 0.276284
v -2.7116 0.142431 0.276284
v -2.7116 0.142431 -0.276284
v -2.93971 -0.142431 0.35758
v -2.93971 -0.142431 -0.35758
v -2.93971 0.142431 0.35758
v -2.93971 0.142431 -0.35758
v -3.22245 0.529178 -0.109814
v -3.08163 0.600126 -0.109814
v -3.08163 0.600126 -0.25858
v -3.22245 0.529178 -0.25858
v -3.08163 0.142431 -0.25858
v -3.08163 0.142431 0.25858
v -3.22245 0.142431 -0.25858
v -4.42665 0.142431 -0.25858
v -4.25606 0.142431 -0.25858
v -4.11305 0.142431 -0.25858
v -3.93626 0.142431 -0.25858
v -3.7408 0.142431 -0.25858
v -3.55044 0.142431 -0.25858
v -3.39053 0.142431 -0.25858
v -4.42665 0.142431 -0.109814
v -4.42665 0.142431 0.25858
v -4.42665 0.142431 0.090398
v -3.22245 0.142431 0.25858
v -3.39053 0.142431 0.25858
v -3.55044 0.142431 0.25858
v -3.7408 0.142431 0.25858
v -3.93626 0.142431 0.25858
v -4.11305 0.142431 0.25858
v -4.25606 0.142431 0.25858
v -3.08163 0.600126 0.090398
v -3.08163 0.600126 0.25858
v -4.42665 0.600126 -0.109814
v -4.42665 0.600126 -0.25858
v -3.22245 0.529178 0.25858
v -3.7408 0.600126 0.25858
v -3.93626 0.529178 0.25858
v -3.7408 0.600126 -0.25858
v -3.93626 0.529178 -0.25858
v -3.7408 0.600126 -0.109814
v -3.93626 0.529178 -0.109814
v -4.11305 0.600126 0.25858
v -4.25606 0.529178 0.25858
v -4.11305 0.600126 -0.25858
v -4.25606 0.529178 -0.25858
v -4.11305 0.600126 -0.109814
v -4.25606 0.529178 -0.109814
v -3.39053 0.600126 0.25858
v -3.55044 0.529178 0.25858
v -3.39053 0.600126 -0.25858
v -3.55044 0.529178 -0.25858
v -3.39053 0.600126 -0.109814
v -3.55044 0.529178 -0.109814
v -4.42665 0.600126 0.090398
v -4.42665 0.600126 0.25858
v -4.11305 0.600126 0.090398
v -4.25606 0.529178 0.090398
v -3.7408 0.600126 0.090398
v -3.93626 0.529178 0.090398
v -3.39053 0.600126 0.090398
v -3.55044 0.529178 0.090398
v -3.22245 0.529178 0.090398
vn -0.017093 0 0.999854
vn 0 0 1
vn 0 1 0
vn -0.017093 0 -0.999854
vn 0 0 -1
vn 0 -1 0
vn 1 0 0
vn -1 0 0
vn -0.180153 0 0.983639
vn -0.180153 0 -0.983639
vn 0.176988 0 0.984213
vn 0.176988 0 -0.984213
vn 0.043737 0 0.999043
vn 0.043737 0 -0.999043
vn -0.449929 0.893064 0
vn -0.44993 0.893064 0
vn -1 0 -2e-06
vn -1 0 1e-06
vn 0.384006 0.923331 1e-06
vn 0.384006 0.923331 0
vn 0.384006 0.92333 0
vt 0.375 0
vt 0.625 0
vt 0.625 0.25
vt 0.375 0.25
vt 0.625 0.5
vt 0.375 0.5
vt 0.625 0.75
vt 0.375 0.75
vt 0.375 1
vt 0.625 1
vt 0.875 0
vt 0.875 0.25
vt 0.125 0.25
vt 0.125 0
vt 0.196915 0.25
vt 0.293699 0.25
usemtl material_1
f 1/1/1 2/2/2 3/3/2 4/4/1 
f 3/3/3 5/5/3 6/6/3 4/4/3 
f 6/6/4 5/5/5 7/7/5 8/8/4 
f 1/9/6 8/8/6 7/7/6 2/10/6 
f 2/2/7 7/11/7 5/12/7 3/3/7 
f 9/13/8 10/14/8 11/1/8 12/4/8 
f 13/14/6 8/14/6 1/1/6 14/1/6 
f 1/1/1 4/4/1 15/4/9 14/1/9 
f 4/4/3 6/13/3 16/13/3 15/4/3 
f 6/13/4 8/14/4 13/14/10 16/13/10 
f 17/14/6 13/14/6 14/1/6 18/1/6 
f 14/1/9 15/4/9 19/4/11 18/1/11 
f 16/13/3 20/13/3 19/4/3 15/4/3 
f 16/13/10 13/14/10 17/14/12 20/13/12 
f 21/1/6 22/14/6 17/14/6 18/1/6 
f 18/1/11 19/4/11 23/4/13 21/1/13 
f 20/13/3 24/13/3 23/4/3 19/4/3 
f 20/13/12 17/14/12 22/14/14 24/13/14 
f 21/1/13 23/4/13 12/4/2 11/1/2 
f 22/14/6 21/1/6 11/1/6 10/14/6 
f 24/13/14 22/14/14 10/14/5 9/13/5 
f 25/15/3 26/15/15 27/13/16 28/13/3 
f 23/4/3 24/13/3 29/13/3 30/4/3 
f 31/13/3 29/13/3 24/13/3 9/13/3 32/13/3 33/13/3 34/13/3 35/13/3 36/13/3 37/13/3 38/13/3 
f 39/15/3 32/13/3 9/13/3 12/4/3 40/4/3 41/16/3 
f 23/4/3 30/4/3 42/4/3 43/4/3 44/4/3 45/4/3 46/4/3 47/4/3 48/4/3 40/4/3 12/4/3 
f 29/13/7 27/13/7 26/15/7 49/16/7 50/4/7 30/4/7 
f 29/13/5 31/13/5 28/13/5 27/13/5 
f 32/13/17 39/15/8 51/15/8 52/13/17 
f 42/4/2 30/4/2 50/4/2 53/4/2 
f 46/4/2 45/4/2 54/4/2 55/4/2 
f 56/13/5 36/13/5 35/13/5 57/13/5 
f 58/15/3 56/13/3 57/13/3 59/15/3 
f 48/4/2 47/4/2 60/4/2 61/4/2 
f 62/13/5 34/13/5 33/13/5 63/13/5 
f 64/15/3 62/13/3 63/13/3 65/15/3 
f 44/4/2 43/4/2 66/4/2 67/4/2 
f 68/13/5 38/13/5 37/13/5 69/13/5 
f 70/15/3 68/13/3 69/13/3 71/15/3 
f 72/16/18 41/16/18 40/4/8 73/4/8 
f 60/4/3 74/16/3 75/16/3 61/4/3 
f 54/4/3 76/16/3 77/16/3 55/4/3 
f 66/4/3 78/16/3 79/16/3 67/4/3 
f 50/4/16 49/16/15 80/16/3 53/4/3 
f 51/15/8 39/15/8 41/16/18 72/16/18 
f 74/16/3 64/15/3 65/15/3 75/16/3 
f 76/16/3 58/15/3 59/15/3 77/16/3 
f 78/16/3 70/15/3 71/15/3 79/16/3 
f 80/16/3 49/16/15 26/15/15 25/15/3 
f 47/4/2 46/4/2 55/4/2 60/4/2 
f 57/13/5 35/13/5 34/13/5 62/13/5 
f 59/15/3 57/13/3 62/13/3 64/15/3 
f 77/16/3 59/15/3 64/15/3 74/16/3 
f 55/4/3 77/16/3 74/16/3 60/4/3 
f 45/4/2 44/4/2 67/4/2 54/4/2 
f 69/13/5 37/13/5 36/13/5 56/13/5 
f 71/15/3 69/13/3 56/13/3 58/15/3 
f 79/16/3 71/15/3 58/15/3 76/16/3 
f 67/4/3 79/16/3 76/16/3 54/4/3 
f 40/4/2 48/4/2 61/4/2 73/4/2 
f 63/13/5 33/13/5 32/13/5 52/13/5 
f 65/15/3 63/13/3 52/13/19 51/15/20 
f 75/16/3 65/15/3 51/15/20 72/16/20 
f 61/4/3 75/16/3 72/16/20 73/4/21 
f 43/4/2 42/4/2 53/4/2 66/4/2 
f 28/13/5 31/13/5 38/13/5 68/13/5 
f 70/15/3 25/15/3 28/13/3 68/13/3 
f 78/16/3 80/16/3 25/15/3 70/15/3 
f 53/4/3 80/16/3 78/16/3 66/4/3 
s off
